<?xml version="1.0" encoding="utf-8"?>
<!-- Generator: Adobe Illustrator 24.1.1, SVG Export Plug-In . SVG Version: 6.00 Build 0)  -->
<svg version="1.1" id="Layer_1" xmlns="http://www.w3.org/2000/svg" xmlns:xlink="http://www.w3.org/1999/xlink" x="0px" y="0px"
	 viewBox="0 0 540 540" style="enable-background:new 0 0 540 540;" xml:space="preserve">
<style type="text/css">
	.st0{fill:#CEAD89;}
	.st1{display:none;fill:url(#SVGID_1_);}
</style>
<g>
	<g>
		<path class="st0" d="M260.2,59.6c51,0,76.9,10.2,88.4,33.3l46.8-30.5h46.1C394.7,24.1,335.1,1,270,1C203.3,1,142.4,25.2,95.4,65.4
			c15.1-4.1,34.1-5.9,57.3-5.9L260.2,59.6L260.2,59.6z"/>
		<path class="st0" d="M303.8,413.4H218c-12.5,0-21.2,5.5-23.9,17.6h-70.4V328.9H48.1v-90.5c0-32.7,21.3-54.4,73.9-58l93.4-5.9
			c59.6-3.7,63.7-4.8,63.7-30.9c0-21.7-2.2-26.5-54.4-26.5h-54.1c-34.5,0-45.2,5.2-45.2,32.7v11.4H48.3v-31.3c0-4.7,0.2-9,0.7-13.1
			C18.7,160.3,1,213,1,270c0,91.7,45.9,172.7,116,221.3c-1.3-6.4-2-13.6-2-21.7v-15.4h74.8c0,22.4,6.2,28.5,43.7,28.5h76.3
			c37.4,0,41.4-10.3,41.4-36C351.1,416.7,341.2,413.4,303.8,413.4z"/>
		<path class="st0" d="M492.7,119v209.9h-75V126.4l-62.1,39.8c-4.4,53.4-26.3,63.9-108.7,68.4l-84.3,4.4
			c-34.2,1.8-39.3,8.5-39.3,32.4h0.5l0,0h262.8v57.3h-26.3H194.2v46.1c10.3-10.3,21.2-16.6,50.6-16.6h92c56.5,0,89.1,18.3,89.1,77
			v16.9c0,16.3-1.7,29.7-5.2,40.5C487,447.9,532,374.3,538.3,289.9c0.5-6.6,0.7-13.3,0.7-20C539,214,522,162.1,492.7,119z"/>
	</g>
</g>
<g>

		<radialGradient id="SVGID_1_" cx="280.0227" cy="746.6915" r="184.9537" gradientTransform="matrix(1 0 0 1 0 -562.9098)" gradientUnits="userSpaceOnUse">
		<stop  offset="0" style="stop-color:#06357A"/>
		<stop  offset="0.5837" style="stop-color:#06357A"/>
		<stop  offset="0.6798" style="stop-color:#06357A"/>
		<stop  offset="0.7241" style="stop-color:#0C377C"/>
		<stop  offset="0.7722" style="stop-color:#1C3D80"/>
		<stop  offset="0.8222" style="stop-color:#2F4888"/>
		<stop  offset="0.8733" style="stop-color:#485994"/>
		<stop  offset="0.9254" style="stop-color:#6571A5"/>
		<stop  offset="0.9776" style="stop-color:#8C93BE"/>
		<stop  offset="1" style="stop-color:#A1A7CA"/>
	</radialGradient>
	<path class="st1" d="M325,233.3c-32.5,23.4-67.4,38-100,43.5c16.9,7.2,35.5,11.3,55,11.3c77.1,0,139.5-62.5,139.5-139.5
		c0-13.6-2-26.7-5.6-39.1C405,152.1,373.5,198.4,325,233.3z"/>
</g>
</svg>
