<svg xmlns="http://www.w3.org/2000/svg" viewBox="0 0 720.49 720.49"><defs><style>.cls-1{fill:#cead89;}</style></defs><g id="Layer_2" data-name="Layer 2"><g id="Layer_1-2" data-name="Layer 1"><path class="cls-1" d="M360.25,0C161.29,0,0,161.29,0,360.25S161.29,720.49,360.25,720.49,720.49,559.21,720.49,360.25,559.2,0,360.25,0ZM109.49,374.87V299.94a12.63,12.63,0,0,1,3.69-8.92l56.75-56.74a12.61,12.61,0,0,1,17.84,0L244.51,291a12.6,12.6,0,0,1,3.7,8.92v74.93a12.62,12.62,0,0,1-12.62,12.61H122.1A12.62,12.62,0,0,1,109.49,374.87Zm224.1,202.41A12.62,12.62,0,0,1,321,589.9H207.49a12.62,12.62,0,0,1-12.62-12.62V502.36a12.58,12.58,0,0,1,3.7-8.92l56.74-56.75a12.61,12.61,0,0,1,17.84,0l56.75,56.75a12.62,12.62,0,0,1,3.69,8.92Zm-30.51-326.7A12.62,12.62,0,0,1,290.47,238V163a12.65,12.65,0,0,1,3.69-8.92l56.75-56.74a12.61,12.61,0,0,1,17.84,0l56.74,56.74a12.62,12.62,0,0,1,3.7,8.92V238a12.62,12.62,0,0,1-12.62,12.62ZM545,572.57a12.61,12.61,0,0,1-12.61,12.62H418.92a12.61,12.61,0,0,1-12.61-12.62V497.65a12.57,12.57,0,0,1,3.69-8.92L466.74,432a12.64,12.64,0,0,1,17.85,0l56.74,56.75a12.57,12.57,0,0,1,3.69,8.92Zm65.15-207.84a12.62,12.62,0,0,1-12.62,12.62H484.06a12.61,12.61,0,0,1-12.61-12.62V289.81a12.62,12.62,0,0,1,3.69-8.92l56.74-56.75a12.62,12.62,0,0,1,17.85,0l56.74,56.75a12.58,12.58,0,0,1,3.7,8.92Z"/></g></g></svg>
