<?xml version="1.0" encoding="utf-8"?>
<!-- Generator: Adobe Illustrator 24.1.1, SVG Export Plug-In . SVG Version: 6.00 Build 0)  -->
<svg version="1.1" id="Layer_1" xmlns="http://www.w3.org/2000/svg" xmlns:xlink="http://www.w3.org/1999/xlink" x="0px" y="0px"
	 viewBox="0 0 1000 1000" style="enable-background:new 0 0 1000 1000;" xml:space="preserve">
<style type="text/css">
	.st0{fill:#CEAD89;}
</style>
<g id="Layer_1-2">
	<circle id="Group_1" class="st0" cx="500" cy="51.4" r="51.4"/>
</g>
<g id="Layer_1-2_7_">

		<ellipse id="Group_1_7_" transform="matrix(0.9977 -6.732453e-02 6.732453e-02 0.9977 -3.9678 24.922)" class="st0" cx="367.8" cy="71.3" rx="51.4" ry="51.4"/>
</g>
<g id="Layer_1-2_11_">

		<ellipse id="Group_1_11_" transform="matrix(0.7071 -0.7071 0.7071 0.7071 -19.0328 212.7492)" class="st0" cx="247.3" cy="129.3" rx="51.4" ry="51.4"/>
</g>
<g id="Layer_1-2_15_">

		<ellipse id="Group_1_15_" transform="matrix(0.7071 -0.7071 0.7071 0.7071 -112.0571 170.0752)" class="st0" cx="149.3" cy="220.3" rx="51.4" ry="51.4"/>
</g>
<g id="Layer_1-2_19_">

		<ellipse id="Group_1_19_" transform="matrix(0.7071 -0.7071 0.7071 0.7071 -213.5269 156.7165)" class="st0" cx="82.4" cy="336.1" rx="51.4" ry="51.4"/>
</g>
<g id="Layer_1-2_23_">

		<ellipse id="Group_1_23_" transform="matrix(0.7071 -0.7071 0.7071 0.7071 -314.4263 173.86)" class="st0" cx="52.7" cy="466.5" rx="51.4" ry="51.4"/>
</g>
<g id="Layer_1-2_27_">

		<ellipse id="Group_1_27_" transform="matrix(7.424233e-03 -1 1 7.424233e-03 -537.6241 658.0153)" class="st0" cx="62.6" cy="599.8" rx="51.4" ry="51.4"/>
</g>
<g id="Layer_1-2_31_">

		<ellipse id="Group_1_31_" transform="matrix(0.7071 -0.7071 0.7071 0.7071 -479.4995 290.9857)" class="st0" cx="111.5" cy="724.3" rx="51.4" ry="51.4"/>
</g>
<g id="Layer_1-2_35_">

		<ellipse id="Group_1_35_" transform="matrix(0.7071 -0.7071 0.7071 0.7071 -529.006 380.5608)" class="st0" cx="194.9" cy="828.8" rx="51.4" ry="51.4"/>
</g>
<g id="Layer_1-2_39_">

		<ellipse id="Group_1_39_" transform="matrix(0.7071 -0.7071 0.7071 0.7071 -549.9102 480.7486)" class="st0" cx="305.4" cy="904.2" rx="51.4" ry="51.4"/>
</g>
<g id="Layer_1-2_43_">

		<ellipse id="Group_1_43_" transform="matrix(0.7071 -0.7071 0.7071 0.7071 -540.3549 582.647)" class="st0" cx="433.1" cy="943.6" rx="51.4" ry="51.4"/>
</g>
<g id="Layer_1-2_47_">

		<ellipse id="Group_1_47_" transform="matrix(8.213159e-02 -0.9966 0.9966 8.213159e-02 -420.0984 1431.0363)" class="st0" cx="566.9" cy="943.6" rx="51.4" ry="51.4"/>
</g>
<g id="Layer_1-2_51_">
	<circle id="Group_1_51_" class="st0" cx="694.6" cy="904.2" r="51.4"/>
</g>
<g id="Layer_1-2_55_">

		<ellipse id="Group_1_55_" transform="matrix(0.7071 -0.7071 0.7071 0.7071 -350.2676 812.0734)" class="st0" cx="805.1" cy="828.8" rx="51.4" ry="51.4"/>
</g>
<g id="Layer_1-2_59_">

		<ellipse id="Group_1_59_" transform="matrix(0.7071 -0.7071 0.7071 0.7071 -251.9221 840.4063)" class="st0" cx="888.5" cy="724.3" rx="51.4" ry="51.4"/>
</g>
<g id="Layer_1-2_63_">

		<ellipse id="Group_1_63_" transform="matrix(0.7071 -0.7071 0.7071 0.7071 -149.5946 838.4925)" class="st0" cx="937.4" cy="599.8" rx="51.4" ry="51.4"/>
</g>
<g id="Layer_1-2_67_">

		<ellipse id="Group_1_67_" transform="matrix(0.1564 -0.9877 0.9877 0.1564 338.4631 1329.2192)" class="st0" cx="947.3" cy="466.5" rx="51.4" ry="51.4"/>
</g>
<g id="Layer_1-2_71_">

		<ellipse id="Group_1_71_" transform="matrix(0.9899 -0.1417 0.1417 0.9899 -38.367 133.4109)" class="st0" cx="917.6" cy="336.1" rx="51.4" ry="51.4"/>
</g>
<g id="Layer_1-2_75_">

		<ellipse id="Group_1_75_" transform="matrix(0.7071 -0.7071 0.7071 0.7071 93.3956 666.0818)" class="st0" cx="850.7" cy="220.3" rx="51.4" ry="51.4"/>
</g>
<g id="Layer_1-2_79_">

		<ellipse id="Group_1_79_" transform="matrix(0.7071 -0.7071 0.7071 0.7071 128.9986 570.1286)" class="st0" cx="752.7" cy="129.3" rx="51.4" ry="51.4"/>
</g>
<g id="Layer_1-2_83_">

		<ellipse id="Group_1_83_" transform="matrix(0.7071 -0.7071 0.7071 0.7071 134.7371 467.9442)" class="st0" cx="632.2" cy="71.3" rx="51.4" ry="51.4"/>
</g>
</svg>
