<svg xmlns="http://www.w3.org/2000/svg" viewBox="0 0 1002.51 1000"><defs><style>.cls-1{fill:#cead89;}</style></defs><g id="Layer_2" data-name="Layer 2"><g id="Layer_1-2" data-name="Layer 1"><circle id="Group_1" data-name="Group 1" class="cls-1" cx="501.26" cy="51.42" r="51.42"/><circle id="Group_1-2" data-name="Group 1" class="cls-1" cx="368.29" cy="71.46" r="51.42"/><circle id="Group_1-3" data-name="Group 1" class="cls-1" cx="247.14" cy="129.8" r="51.42"/><circle id="Group_1-4" data-name="Group 1" class="cls-1" cx="148.57" cy="221.26" r="51.42"/><circle id="Group_1-5" data-name="Group 1" class="cls-1" cx="81.34" cy="337.71" r="51.42" transform="translate(-214.97 156.43) rotate(-45)"/><circle id="Group_1-6" data-name="Group 1" class="cls-1" cx="51.42" cy="468.81" r="51.42"/><circle id="Group_1-7" data-name="Group 1" class="cls-1" cx="61.47" cy="602.89" r="51.42" transform="translate(-408.31 220.05) rotate(-45)"/><circle id="Group_1-8" data-name="Group 1" class="cls-1" cx="110.59" cy="728.06" r="51.42"/><circle id="Group_1-9" data-name="Group 1" class="cls-1" cx="194.43" cy="833.19" r="51.42" transform="translate(-31.02 7.85) rotate(-2.14)"/><circle id="Group_1-10" data-name="Group 1" class="cls-1" cx="305.53" cy="908.94" r="51.42"/><circle id="Group_1-11" data-name="Group 1" class="cls-1" cx="434.02" cy="948.58" r="51.42" transform="translate(-543.62 584.73) rotate(-45)"/><circle id="Group_1-12" data-name="Group 1" class="cls-1" cx="568.49" cy="948.58" r="51.42" transform="translate(-504.24 679.81) rotate(-45)"/><circle id="Group_1-13" data-name="Group 1" class="cls-1" cx="696.98" cy="908.94" r="51.42"/><circle id="Group_1-14" data-name="Group 1" class="cls-1" cx="808.08" cy="833.19" r="51.42" transform="translate(-54.75 1609.56) rotate(-87.86)"/><circle id="Group_1-15" data-name="Group 1" class="cls-1" cx="891.92" cy="728.06" r="51.42"/><circle id="Group_1-16" data-name="Group 1" class="cls-1" cx="941.05" cy="602.89" r="51.42" transform="translate(-150.69 842) rotate(-45)"/><circle id="Group_1-17" data-name="Group 1" class="cls-1" cx="951.09" cy="468.81" r="51.42"/><circle id="Group_1-18" data-name="Group 1" class="cls-1" cx="921.17" cy="337.71" r="51.42" transform="translate(31.01 750.28) rotate(-45)"/><circle id="Group_1-19" data-name="Group 1" class="cls-1" cx="853.94" cy="221.26" r="51.42"/><circle id="Group_1-20" data-name="Group 1" class="cls-1" cx="755.37" cy="129.8" r="51.42"/><circle id="Group_1-21" data-name="Group 1" class="cls-1" cx="634.22" cy="71.46" r="51.42"/></g></g></svg>
